<svg width="320" height="320" viewBox="0 0 320 320" fill="none" xmlns="http://www.w3.org/2000/svg">
<path d="M189.541 184.434C189.625 184.525 189.653 184.663 189.625 184.847C189.287 187.038 188.919 189.2 188.516 191.331C188.156 193.231 187.853 195.097 187.6 196.925C187.553 197.253 187.416 197.559 187.2 197.809C184.116 201.378 180.841 205.216 177.375 209.322C176.831 209.966 176.175 210.666 175.409 211.422C175.278 211.547 175.072 211.544 174.947 211.416C174.934 211.403 174.925 211.391 174.912 211.375C173.012 208.669 171.272 205.869 169.472 203.191C167.141 199.725 164.856 196.219 162.619 192.672C162.303 192.172 162.109 191.653 162.031 191.112C161.941 190.466 161.869 189.809 161.822 189.144C161.144 179.672 160.588 170.034 160.159 160.234C160.069 158.144 159.947 156.066 159.8 153.994C159.516 150.041 159.144 146.081 158.681 142.109C158.666 141.956 158.437 141.838 158.003 141.75L163.769 137.697C163.859 137.634 163.909 137.659 163.916 137.769C164.338 143.831 164.587 149.697 164.662 155.366C164.709 158.894 165.037 162.444 165.134 165.837C165.319 172.497 165.428 179.216 165.469 185.991C165.472 186.669 165.462 187.256 165.872 187.844C167.909 190.772 169.984 193.878 172.097 197.166C172.397 197.631 172.547 197.588 172.544 197.034L172.5 166.591C172.497 166.463 172.466 166.341 172.4 166.228C172.191 165.875 171.959 165.541 171.709 165.231C170.434 163.647 169.184 162.041 167.962 160.409C167.387 159.644 167.338 158.644 167.975 157.906C170.275 155.256 172.591 152.663 174.925 150.122C175.303 149.709 175.653 149.284 175.975 148.847C176.047 148.75 176.047 148.619 175.978 148.519C173.353 144.775 170.634 141.219 168.003 137.419C164.806 132.803 161.581 128.197 158.334 123.603C156.934 121.625 155.572 119.55 154.269 117.5C154.153 117.319 154.006 117.287 153.828 117.409C147.609 121.634 141.337 125.816 135.191 130.166C131.187 133 127.369 135.612 123.734 138.003C119.925 140.506 116.447 141.891 111.538 141.734C106.903 141.584 101.509 139.684 98.6812 135.819C98.6156 135.731 98.5281 135.691 98.4188 135.697C95.4781 135.9 92.4469 134.684 90.7563 132.212C89.3844 130.206 88.9312 128 89.4031 125.597C89.6437 125.566 89.7719 125.616 89.7844 125.75C89.8687 126.597 91.25 126.872 92.0219 126.994C94.4625 127.384 96.8812 126.737 98.9312 125.35C100.441 124.328 101.772 123.231 102.925 122.056C103 121.981 103.075 121.947 103.153 121.956C104.472 124.138 104.975 126.472 104.666 128.956C104.419 130.669 103.666 132.181 102.406 133.497C102.356 133.55 102.359 133.631 102.412 133.681C102.416 133.684 102.422 133.691 102.425 133.694C103.659 134.613 105.031 135.384 106.544 136.006C109.55 137.25 113.116 137.231 116.328 136.575C117.594 136.316 118.684 135.872 119.6 135.238C126.759 130.291 138.916 121.828 156.066 109.856C161.528 106.044 163.838 99.5156 159.966 93.7156C159.581 93.1375 158.984 92.5625 158.181 91.9844C155.834 89.8094 153.031 88.9344 149.909 89.9937C146.091 91.2937 143.447 94.9063 143.959 99.0375C144.209 101.05 143.844 102.8 142.863 104.288C141.075 107 138.475 108.347 135.066 108.328C132.741 108.316 130.328 106.35 128.825 105.644C127.097 104.834 125.256 104.847 123.3 105.681C123.331 105.397 123.444 105.106 123.634 104.816C123.844 104.497 123.975 104.228 124.034 104.006C124.575 101.991 124.816 100.397 124.762 99.2219C124.616 95.975 124.613 92.8375 124.747 89.8062C126.238 86.7031 128.419 84.5156 131.284 83.2375C132.016 82.9125 132.966 82.5687 134.134 82.2062C134.788 82.1094 135.7 81.8406 136.875 81.4031C140.394 80.0937 143.025 78.9937 144.766 78.1031C149.088 75.8969 151.634 71.6594 151.797 66.8219C151.85 65.25 151.738 63.7094 151.466 62.1969C151.288 61.225 151.091 60.1812 150.872 59.0719L149.744 54.0125C149.722 53.9094 149.663 53.8812 149.569 53.9344C145.322 56.3187 141.222 58.7937 137.269 61.3625C137.209 61.4031 137.128 61.3844 137.087 61.325C137.075 61.3062 137.069 61.2844 137.066 61.2594C137.037 60.3906 136.944 59.5781 136.784 58.8219C135.959 54.8687 135.191 50.9719 134.475 47.1312C134.078 45.0062 133.672 42.9656 133.253 41.0062C131.322 31.9781 129.437 22.6937 127.597 13.1562C127.55 12.9125 127.647 12.7594 127.887 12.6969C128.116 12.6344 128.3 12.7062 128.434 12.9125C132.294 18.8031 136.597 24.9844 141.341 31.4562C143.031 33.7594 144.784 36.2844 146.606 39.025C147.063 39.7125 147.213 39.65 147.059 38.8406C146.638 36.5969 146.181 34.3531 145.847 32.1031C144.897 25.6625 144.019 19.2844 142.863 12.8719C142.816 12.6281 142.978 12.3937 143.222 12.3469C143.238 12.3437 143.25 12.3406 143.266 12.3406C143.594 12.3125 143.872 12.4312 144.097 12.6906C144.669 13.3531 145.256 14.0719 145.863 14.85C152.422 23.2469 159.037 31.6781 165.716 40.1469C169.416 44.8375 173.512 50.0656 178.003 55.8312C181.294 60.0531 182.506 64.7625 181.644 69.9562C181.628 70.0531 181.647 70.1375 181.703 70.2156C184.953 74.6531 188.344 79.0031 191.597 83.4125C198.225 92.3969 204.903 101.422 211.634 110.487C211.903 110.85 212.222 111.153 212.512 111.494C212.587 111.578 212.587 111.666 212.512 111.75C206.359 118.719 201.019 124.678 196.491 129.625C191.384 135.203 186.781 140.388 182.684 145.178C181.863 146.138 180.953 147.137 179.956 148.181C179.906 148.231 179.9 148.309 179.941 148.369C180.672 149.403 181.459 150.406 182.303 151.384C184.522 153.953 186.428 156.234 188.019 158.231C188.584 158.941 188.581 159.631 188.003 160.309C186.45 162.131 184.944 163.934 183.478 165.713C183.284 165.95 183.181 166.244 183.184 166.547C183.288 175.475 183.306 184.156 183.234 192.591C183.234 192.631 183.247 192.634 183.269 192.603L189.541 184.434ZM166.5 72.575L167.419 76.4375C167.447 76.5594 167.516 76.5844 167.619 76.5125C169.238 75.3812 170.447 73.9687 171.25 72.2719C172.891 68.7969 173.263 64.5656 171.834 61.0719C171.381 59.9656 170.65 58.6375 169.634 57.0844C166.388 52.1187 162.688 47.4125 159.347 42.7156C158.566 41.6187 157.769 40.6875 156.903 39.7094L150.294 30.2125C150.028 29.8344 149.947 29.8687 150.053 30.3187C150.266 31.2281 150.45 32.0719 150.606 32.8469C152.694 43.0781 154.697 53.2406 156.613 63.3344C156.638 63.4594 156.725 63.5625 156.844 63.6125C159.672 64.7406 162.041 66.4937 163.947 68.8656C164.175 69.15 164.597 69.7719 165.206 70.7312C165.587 71.3344 166.019 71.9469 166.5 72.575ZM137.138 87.7406C137.331 87.3406 137.541 86.9469 137.766 86.5625C137.8 86.5031 137.781 86.425 137.722 86.3906C137.697 86.375 137.666 86.3687 137.638 86.375C134.278 86.8656 131.259 88.2656 130.4 91.9187C130.375 92.0281 130.419 92.0812 130.531 92.0812C133.556 92.0531 135.759 90.6062 137.138 87.7406ZM161.831 119.594C161.794 119.563 161.75 119.544 161.703 119.534C161.603 119.519 161.591 119.547 161.663 119.619C161.766 119.722 161.853 119.831 161.931 119.953C163.416 122.266 164.919 124.563 166.447 126.841C168.272 129.566 170.281 132.203 172.062 134.931C173.694 137.428 175.528 139.778 177.159 142.413C177.456 142.897 177.816 143.347 178.234 143.763C178.287 143.816 178.372 143.816 178.425 143.763C178.428 143.759 178.431 143.756 178.434 143.753L181.6 139.937C181.656 139.869 181.656 139.8 181.603 139.731C180.859 138.8 180.216 137.784 179.459 136.859C177.659 134.65 175.847 132.425 174.025 130.178C172.447 128.231 170.903 126.569 169.394 125.184C168.366 124.244 166.928 123.206 165.088 122.078C164.556 121.753 164.034 121.384 163.522 120.969C162.997 120.544 162.431 120.084 161.831 119.594Z" fill="#000008"/>
<path d="M284.872 209.137C284.228 205.425 283.597 201.541 282.981 197.481C282.769 196.087 282.428 194.719 282.197 193.353C281.638 190.041 281.119 186.8 280.641 183.634C280.337 181.641 280 179.562 279.622 177.397C278.962 173.616 278.453 169.737 277.834 166.081C277.006 161.184 276.219 156.225 275.478 151.203C275.344 150.312 275.103 149.431 274.75 148.559C273.359 145.147 271.619 142.328 269.528 140.103C267.937 138.406 265.941 136.984 263.541 135.831C261.456 134.831 259.112 133.837 256.509 132.85C253.803 131.822 251.212 130.878 248.741 130.019C241.828 127.619 234.909 125.003 228.213 122.5C227.819 122.353 227.5 122.116 227.256 121.787C224.928 118.656 222.628 115.572 220.359 112.537C219.244 111.047 218.081 109.547 216.872 108.037C215.581 106.428 214.428 104.916 213.412 103.497C209.875 98.5469 206.225 93.6125 202.466 88.6969C201.2 87.0437 200.022 85.4312 198.937 83.8594C197.812 82.2375 196.622 80.6281 195.362 79.0375C194.153 77.5094 192.894 75.8469 191.584 74.0562C190.116 72.0469 188.656 70.1094 187.203 68.25C187.1 68.1187 187.053 67.9687 187.062 67.8031C187.125 66.6875 187.134 65.4625 187.094 64.1344C186.997 61.025 186.097 58.1594 184.394 55.5375C181.966 51.8031 179.328 48.2969 176.478 45.0187C176.134 44.6219 176.216 44.4906 176.722 44.625C177.056 44.7125 177.397 44.7781 177.737 44.8219C181.759 45.3375 185.147 45.9562 187.9 46.6719C190.106 47.2437 192.209 47.8031 194.206 48.3469C199.009 49.6531 204.453 51.6844 210.537 54.4437C217.622 57.6531 224.012 60.9531 230.487 65.2875C236.847 69.5406 242.847 74.2812 248.491 79.5094C250.725 81.5781 252.825 83.7062 254.791 85.8937C262.087 94.0219 268.362 102.231 273.247 111.297C274.522 113.666 275.772 116.075 276.997 118.522C282.3 129.141 285.756 140.831 287.987 152.5C288.381 154.553 288.7 156.544 288.944 158.466C290.181 168.259 290.325 178.044 289.372 187.816C288.587 195.878 287.584 203.169 285.616 210.644C285.481 211.147 285.347 211.15 285.209 210.647C285.072 210.141 284.959 209.637 284.872 209.137Z" fill="#F15757"/>
<path d="M152.55 124.891L158.588 133.944C158.7 134.112 158.663 134.337 158.5 134.459C157.722 135.041 157.034 135.541 156.431 135.956C153.653 137.875 150.872 139.812 148.094 141.766C146.641 142.787 145.206 143.822 143.797 144.862C142.387 145.9 140.925 147.4 139.403 149.359C137.016 152.437 135.641 155.856 135.281 159.616C135.206 160.403 135.184 162.484 135.219 165.859C135.359 180.325 135.231 194.716 135.291 209.144C135.3 211.191 135.325 213.194 135.372 215.147C135.378 215.316 135.247 215.453 135.078 215.459C135.075 215.459 135.069 215.459 135.066 215.459C122.269 215.35 109.487 215.341 96.725 215.437C90.6094 215.484 84.5156 215.369 78.3656 215.403C76.6313 215.412 74.8281 215.716 72.9531 216.306C68.1938 217.809 64.0375 219.216 60.275 222.247C57.8688 224.184 55.8375 226.662 53.7688 229.119C50.7375 232.716 47.8563 236.387 45.125 240.131C45.0594 240.222 44.9344 240.247 44.8406 240.187C44.7406 240.125 44.6813 240.034 44.6625 239.916C44.6344 239.762 44.5906 239.612 44.525 239.472C42.1063 234.225 39.5094 228.916 37.6844 223.3C36.0813 218.359 34.7719 213.906 33.7625 209.944C32.5969 205.366 31.6875 200.291 31.0406 194.719C30.0875 186.541 29.7938 177.956 30.1625 168.959C30.3844 163.487 30.8594 158.756 31.5813 154.769C32.9031 147.472 34.2813 141.581 35.7219 137.103C37.5313 131.469 39.525 126.287 41.7094 121.553C43.3938 117.894 45.1281 114.547 46.9125 111.506C49.1938 107.612 51.5594 103.612 54.1563 99.8875C56.4531 96.5906 58.8469 93.4812 61.3438 90.5625C63.7094 87.7906 66.1219 84.9969 68.675 82.4875C71.8656 79.3469 75.1688 76.3906 78.5844 73.6125C80.2625 72.25 81.8969 70.9562 83.4875 69.7312C87.6281 66.5469 92.2406 63.525 97.325 60.6687C100.934 58.6375 104.178 56.9687 107.063 55.6625C114.297 52.3844 121.634 49.6406 129.075 47.4312C129.178 47.4 129.288 47.4594 129.319 47.5656C129.322 47.5719 129.322 47.5812 129.325 47.5875L132.059 64.6406C132.088 64.8187 131.997 64.9906 131.838 65.0687C129.822 66.0344 127.709 67.1281 125.5 68.3437C123.297 69.5531 121.55 70.6219 120.259 71.5469C114.825 75.4312 110.913 81.7031 110.959 88.5625C110.972 90.5406 111.044 92.7219 111.178 95.1094C111.212 95.7375 110.941 96.3406 110.359 96.9156C105.447 101.787 100.3 106.653 95.5437 111.35C94.4219 112.459 93.2938 113.547 92.1531 114.619C88.5656 117.987 84.1875 121.481 83.85 126.803C83.7469 128.422 83.7125 129.956 84.2344 131.475C85.85 136.181 90.0813 139.875 94.8438 141.162C96.1156 141.506 96.7969 142.397 97.8406 143.078C101.669 145.575 105.675 146.953 109.866 147.219C112.578 147.391 115.378 147.294 118.119 146.634C121.759 145.759 124.713 144.069 127.753 141.978C132.575 138.662 137.231 135.412 141.722 132.234C143.444 131.016 145.166 129.844 146.881 128.719C148.797 127.466 150.581 126.172 152.238 124.841C152.356 124.744 152.463 124.759 152.55 124.891Z" fill="#F15757"/>
<path d="M150.872 59.0719C151.091 60.1812 151.287 61.225 151.466 62.1969C151.737 63.7094 151.85 65.25 151.797 66.8219C151.634 71.6594 149.087 75.8969 144.766 78.1031C143.025 78.9937 140.394 80.0937 136.875 81.4031C135.7 81.8406 134.788 82.1094 134.134 82.2062C133.572 81.5344 132.9 81.0062 132.116 80.6187C129.775 79.4625 127.616 80.6437 125.994 82.4031C125.297 83.1562 124.822 84.0906 124.569 85.2031C124.241 86.6375 124.3 88.1719 124.747 89.8062C124.612 92.8375 124.616 95.975 124.762 99.2219C124.816 100.397 124.575 101.991 124.034 104.006C123.975 104.228 123.844 104.497 123.634 104.816C123.444 105.106 123.331 105.397 123.3 105.681C121.766 106.572 120.178 107.675 118.534 108.991C113.094 113.344 108.019 117.597 103.316 121.747C103.306 121.856 103.253 121.925 103.153 121.956C103.075 121.947 103 121.981 102.925 122.056C101.772 123.231 100.441 124.328 98.9312 125.35C96.8812 126.737 94.4625 127.384 92.0219 126.994C91.25 126.872 89.8687 126.597 89.7844 125.75C89.7719 125.616 89.6437 125.566 89.4031 125.597C90.025 124.519 90.7469 123.594 91.5687 122.816C96.1344 118.506 100.597 114.209 104.95 109.919C108.787 106.134 112.703 102.631 116.403 98.5906C116.569 98.4125 116.659 98.1781 116.656 97.9344C116.634 94.6687 116.637 91.55 116.666 88.5781C116.7 84.5187 118.137 81.0594 120.978 78.2C123.125 76.0406 125.681 74.525 128.344 72.9937C129.472 72.3437 130.659 71.6187 131.906 70.8156C138.134 66.8094 144.456 62.8937 150.872 59.0719Z" fill="#2E3753"/>
<path d="M134.134 82.2062C132.966 82.5687 132.016 82.9125 131.284 83.2375C128.419 84.5156 126.237 86.7031 124.747 89.8062C124.3 88.1719 124.241 86.6375 124.569 85.2031C124.822 84.0906 125.297 83.1562 125.994 82.4031C127.616 80.6437 129.775 79.4625 132.116 80.6188C132.897 81.0063 133.572 81.5344 134.134 82.2062Z" fill="#FF7260"/>
<path d="M158.181 91.9844C158.8 93.3375 159.169 94.2687 159.284 94.7719C159.713 96.6 159.428 98.3156 158.434 99.9219C156.922 102.375 155.478 103.275 152.613 105.297C145.638 110.216 138.7 115.103 131.797 119.956C127.278 123.131 122.691 126.216 118.222 129.459C116.534 130.684 114.759 131.359 112.897 131.481C109.822 131.681 107.078 130.841 104.666 128.956C104.975 126.472 104.472 124.137 103.153 121.956C103.253 121.925 103.306 121.856 103.316 121.747C108.019 117.597 113.094 113.344 118.534 108.991C120.178 107.675 121.766 106.572 123.3 105.681C125.256 104.847 127.097 104.834 128.825 105.644C130.328 106.35 132.741 108.316 135.066 108.328C138.475 108.347 141.075 107 142.863 104.287C143.844 102.8 144.209 101.05 143.959 99.0375C143.447 94.9062 146.091 91.2937 149.909 89.9937C153.031 88.9344 155.834 89.8094 158.181 91.9844Z" fill="#FF7260"/>
<path d="M158.181 91.9844C158.984 92.5625 159.581 93.1375 159.966 93.7156C163.838 99.5156 161.528 106.044 156.066 109.856C138.916 121.828 126.759 130.291 119.6 135.238C118.684 135.872 117.594 136.316 116.328 136.575C113.116 137.231 109.55 137.25 106.544 136.006C105.031 135.384 103.659 134.613 102.425 133.694C102.366 133.65 102.353 133.569 102.394 133.509C102.397 133.503 102.4 133.5 102.406 133.497C103.666 132.181 104.419 130.669 104.666 128.956C107.078 130.841 109.822 131.681 112.897 131.481C114.759 131.359 116.534 130.684 118.222 129.459C122.691 126.216 127.278 123.131 131.797 119.956C138.7 115.103 145.637 110.216 152.612 105.297C155.478 103.275 156.922 102.375 158.434 99.9219C159.428 98.3156 159.713 96.6 159.284 94.7719C159.166 94.2687 158.8 93.3375 158.181 91.9844Z" fill="#9B2C5E"/>
<path d="M224.622 127.303C223.341 130.225 222.122 133.175 220.969 136.147C219.847 139.031 219.088 140.972 218.691 141.963C217.3 145.45 215.981 149.119 214.516 152.422C213.881 153.853 213.209 155.278 212.494 156.697C212.431 156.822 212.481 156.975 212.606 157.037C212.606 157.037 212.609 157.038 212.609 157.041L218.272 159.85C218.375 159.903 218.425 160.022 218.384 160.131C217.669 162.084 216.841 163.975 215.897 165.797C215.628 166.319 215.441 166.856 215.163 167.391C213.813 169.969 212.838 171.897 212.234 173.169C212.113 173.425 212.088 173.662 212.166 173.881C211.869 174.284 211.634 174.656 211.469 175C209.278 179.513 207.109 184.038 204.963 188.572C204.128 190.338 203.247 192.109 202.325 193.881C202.513 194.016 202.531 194.203 202.378 194.45C202.05 194.981 201.797 195.484 201.616 195.956C201.178 197.084 200.75 198.247 200.334 199.441C200.025 200.331 199.722 201.238 199.425 202.156C199.159 202.984 198.863 203.806 198.534 204.622C197.928 206.125 196.794 209.197 195.128 213.844C194.816 214.716 194.481 215.563 194.128 216.388C193.772 217.216 193.447 218.028 193.15 218.831C192.597 220.334 192.038 222.078 191.472 224.063C191.331 224.559 191.128 225.091 190.863 225.659C190.634 226.15 190.422 226.681 190.225 227.256C189.9 228.197 189.55 229.153 189.178 230.128C188.819 231.075 188.441 232.022 188.05 232.972C187.688 233.85 187.363 234.763 187.072 235.709C186.95 236.109 186.803 236.513 186.631 236.922C186.2 237.938 185.912 238.981 185.381 239.931C184.778 241.016 184.294 242.178 183.928 243.413C183.866 243.625 183.891 243.828 184 244.019C184.131 244.244 184.413 244.328 184.65 244.219C185.169 243.972 185.691 243.794 186.216 243.678C186.656 243.584 187.094 243.475 187.528 243.35C187.975 243.225 188.428 243.138 188.881 243.084C190.906 242.856 193.034 242.475 195.269 241.944C195.812 241.816 196.341 241.728 196.853 241.684C197.338 241.644 197.825 241.578 198.319 241.494C202.109 240.834 205.631 240.266 209.309 239.459C210.756 239.144 212.263 238.881 213.828 238.669C214.347 238.6 214.772 238.338 215.309 238.316C216.563 238.269 217.7 237.944 218.966 237.738C222.35 237.191 224.703 236.713 226.022 236.309C226.6 236.131 226.988 235.822 227.188 235.378C227.625 234.406 228.053 233.437 228.475 232.472C229.141 230.937 229.578 229.3 230.466 227.856C231.028 226.944 231.306 225.959 231.588 224.928C231.822 224.075 232.147 223.259 232.569 222.484C232.975 221.738 233.341 220.95 233.669 220.116C234.381 218.297 234.991 216.497 235.947 214.766C236.509 213.75 236.881 212.55 237.062 211.166C237.197 210.113 236.819 208.956 236.806 207.828C236.797 207.244 236.547 206.688 236.456 206.097C236.116 203.9 235.675 201.734 235.141 199.594C234.881 198.544 234.925 197.481 234.656 196.441C234.447 195.634 234.497 194.803 234.238 194.009C234.069 193.494 233.95 192.916 233.884 192.278C233.791 191.387 233.638 190.491 233.425 189.591C232.763 186.506 232.378 184.272 232.275 182.894C232.175 181.563 232.044 180.234 231.878 178.909C231.784 178.134 231.844 176.572 232.053 174.222C232.409 170.931 233.184 167.806 234.378 164.85C235.819 161.284 237.65 157.653 239.866 153.963C244.119 146.875 250.791 140.606 259.753 141.272C260.463 141.325 261.181 141.369 261.909 141.409C266.169 143.569 269.347 147.653 269.819 152.475C269.937 153.694 270.106 154.931 270.313 156.15C272.153 166.966 274.019 178.091 275.909 189.525C277.687 200.291 279.425 210.813 281.122 221.097C281.231 221.763 281.334 222.456 281.425 223.184C281.481 223.634 281.431 224.059 281.278 224.459C279.256 229.697 277.013 234.728 274.553 239.553C270.188 248.116 265 255.856 258.984 262.772C255.181 267.144 251.475 270.916 247.862 274.088C245.691 275.991 243.138 278.134 240.203 280.513C238.088 282.225 235.116 284.3 231.281 286.738C230.037 285.947 228.753 285.291 227.431 284.766C218.888 281.375 210.325 278.028 201.747 274.731C200.753 274.347 200.016 274.156 199.538 274.153C196.322 274.138 193.119 274.15 189.931 274.194C188.041 274.172 186.166 274.166 184.303 274.181C179.706 274.219 175.019 274.506 170.241 275.047C169.759 275.1 169.731 275.244 170.159 275.472C171.259 276.063 172.462 276.563 173.766 276.966C175.344 277.813 176.853 278.65 178.509 279.328C182.794 281.088 187.822 283.209 193.591 285.7C198.484 287.813 203.378 289.884 208.275 291.916C210.416 292.803 212.784 293.888 215.375 295.166C215.466 295.213 215.563 295.231 215.666 295.222L216.441 295.169C213.637 296.547 210.994 297.709 208.503 298.653C198.859 302.309 189.119 304.994 178.834 306.425C178.706 306.444 178.578 306.419 178.466 306.356C177.863 306.019 177.288 305.722 176.738 305.466C171.491 303.038 166.287 300.609 161.128 298.175C155.428 295.487 149.681 292.947 143.931 290.303C140.734 288.834 136.006 286.797 132.1 284.891L129.909 283.866C129.775 283.803 129.697 283.663 129.709 283.516L129.903 281.341L129.978 279.5L129.991 277.228L129.897 275.541L129.991 273.456L130.047 271.612L130.016 269.456C130.128 268.847 130.131 268.263 130.022 267.703C130.078 267.081 130.125 266.494 130.159 265.941C130.178 265.631 130.122 265.353 129.994 265.103C130.184 264.672 130.128 264.363 129.819 264.175C127.906 263.009 125.5 262.731 123.2 262.781C121.444 262.819 118.825 263.009 117.691 264.397C117.469 264.669 117.403 264.953 117.494 265.256L117.397 267.597L117.381 268.847L117.366 271.563C117.244 272.213 117.25 272.775 117.384 273.25L117.341 275.584L117.369 277.416C117.409 277.259 117.313 277.369 117.075 277.741C112.494 275.381 107.975 273.409 103.522 271.819C98.6625 270.084 93.4719 268.9 87.9563 268.269C87.8781 268.163 88.0531 267.959 88.4781 267.663C88.5656 267.603 88.6094 267.519 88.6125 267.409L88.6375 265.297C88.7906 264.675 88.8125 263.994 88.7031 263.256L88.6781 261.334C88.8656 260.647 88.8969 259.994 88.7719 259.372L88.85 256.4C88.0844 255.519 86.8125 254.975 85.0406 254.766C83.1656 254.325 81.2094 254.356 79.1688 254.859C77.6031 254.966 76.5406 255.522 75.975 256.528C75.8531 257.113 75.8156 257.597 75.8688 257.975C75.8844 258.078 75.8781 258.178 75.8563 258.278C75.7656 258.644 75.7781 259.066 75.8938 259.544L75.9938 261.231L75.9156 263.491L75.9813 265.231C76.0281 266.159 75.9406 266.875 75.7188 267.378C72.2969 267.119 68.9938 267.156 65.8125 267.491C65.5719 267.516 65.3313 267.422 65.1688 267.241C63.7344 265.619 62.2906 264.003 60.8313 262.391C58.3188 259.616 55.8344 256.603 53.3781 253.35C52.8563 252.659 52.375 251.947 51.9313 251.213C52.1156 251.109 52.2813 251.047 52.425 251.028C52.8344 251.106 53.1375 251.147 53.3281 251.15C54.7344 251.156 56.05 251.131 57.2719 251.075C57.4531 251.069 57.6156 250.966 57.7063 250.809C58.95 248.638 60.3063 246.503 61.7781 244.406C63.0656 242.569 64.225 240.703 65.3938 238.856C66.1406 237.675 67.0281 236.631 67.8969 235.531C70.025 233.547 72.4781 232.734 75.2531 233.088C77.2563 233.347 79.025 234.306 80.1812 235.931C82.5375 239.244 80.9031 242.106 78.4188 244.65C77.3938 245.7 76.3781 246.744 75.3688 247.778C74.6438 248.525 74.125 249.319 73.2188 249.916C72.8125 250.184 72.8531 250.309 73.3406 250.291L75.4125 250.216C76.8219 250.388 78.2344 250.384 79.6531 250.206C79.7563 250.194 79.8469 250.153 79.925 250.084C82.2844 247.963 84.7094 245.772 87.1938 243.519C89.5594 241.369 92.125 239.181 94.8875 236.956C94.975 236.888 95.0281 236.781 95.0344 236.669C95.1312 234.922 94.9938 233.247 94.6219 231.638L92.5844 227.775L90.7125 224.366C90.6563 224.266 90.5719 224.206 90.4625 224.184C88.2406 223.738 85.9938 223.194 83.7281 222.553C83.5813 222.513 83.5 222.416 83.4906 222.263L83.45 221.559C83.4406 221.4 83.5156 221.319 83.675 221.319L94.0594 221.309C94.1781 221.309 94.2688 221.359 94.3281 221.463C96.3813 224.944 97.9938 227.969 99.1594 230.537C99.5375 231.372 99.8406 232.369 100.063 233.534C100.197 234.247 100.194 235.441 100.053 237.116L99.2 243.869C99.1906 243.934 99.2406 243.997 99.3094 244.006C99.3156 244.006 99.3219 244.006 99.3281 244.006C102.653 243.872 105.959 243.869 109.244 243.997C109.356 244 109.416 243.947 109.419 243.838L109.606 236.816C109.425 235.906 109.241 235.197 109.05 234.688C107.375 230.203 105.575 225.772 103.653 221.4C103.631 221.35 103.653 221.294 103.703 221.272C103.716 221.266 103.728 221.263 103.744 221.263L141.009 221.272C141.031 221.272 141.047 221.256 141.047 221.234C141.119 202.122 141.113 182.297 141.028 161.756C141.019 159.922 141.169 158.447 141.472 157.338C142.613 153.178 145.847 149.966 149.484 147.678C149.6 147.909 149.497 148.2 149.175 148.547C148.937 148.8 148.772 149.041 148.681 149.263C148.422 149.884 148.147 150.534 147.856 151.213C146.713 153.903 146.263 156.8 146.609 159.563C147.431 166.109 148.259 172.584 149.1 178.994C149.375 181.094 149.666 183.166 149.975 185.206C150.428 188.212 150.891 191.216 151.359 194.212C153.928 210.666 156.997 228.15 160.566 246.666C160.6 246.831 160.7 246.903 160.869 246.878L165.647 246.219C167.891 245.791 170.203 245.366 172.581 244.938C172.934 244.875 173.669 244.669 174.784 244.322C175.563 242.569 176.278 240.806 176.938 239.031C178.184 235.669 178.809 233.981 178.816 233.969C180.778 228.903 182.703 223.891 184.588 218.925C185.394 216.803 186.341 214.766 187.1 212.684C187.712 211.006 188.316 209.441 188.909 207.981C191.934 200.544 195.131 193.144 198.503 185.784C200.069 182.363 201.634 179.134 203.209 175.713C205.869 169.938 208.819 163.769 212.056 157.203C212.128 157.059 212.094 156.95 211.95 156.875L206.797 154.197C206.65 154.122 206.594 153.941 206.669 153.794C206.675 153.784 206.678 153.775 206.684 153.766C208.281 151.291 209.719 148.738 210.994 146.103C211.056 145.975 211.041 145.856 210.947 145.747L204.319 137.988C206.997 132.272 209.697 126.569 212.412 120.878C213.303 119.006 214.309 117.247 215.241 115.378C215.284 115.291 215.394 115.256 215.481 115.3C215.506 115.313 215.525 115.328 215.541 115.35L224.622 127.303ZM193.422 244.291C190.669 245.034 187.828 245.647 184.897 246.131C184.781 246.153 184.703 246.262 184.725 246.378C184.725 246.387 184.728 246.394 184.731 246.403L189.969 263.175L191.809 269.084C191.831 269.15 191.875 269.184 191.947 269.184L200.397 269.169C200.575 269.166 200.641 269.078 200.594 268.906L198.603 261.841L196.384 254.347C202.725 253.119 209.053 251.875 215.369 250.619C218.759 249.944 222.197 249.038 225.581 248.388C232.416 247.072 239.297 245.638 246.225 244.091C250.187 243.203 254.034 242.553 258.025 241.797C258.35 241.734 258.659 241.653 258.956 241.553C259.391 241.403 259.394 241.25 258.963 241.091C253.534 239.081 248.069 237.009 242.563 234.869C242.306 234.769 242.05 234.747 241.791 234.8C238.162 235.578 235.025 236.228 232.375 236.75C230.328 237.156 228.284 237.572 226.247 237.994C220.819 239.119 215.441 240.178 210.112 241.172C208.441 241.481 206.397 241.875 203.975 242.353C200.475 243.044 196.959 243.688 193.422 244.291ZM61.5094 251.156C61.4719 251.2 61.4781 251.266 61.5219 251.3C61.5406 251.316 61.5625 251.322 61.5875 251.325L66.7031 251.334C66.7344 251.334 66.7656 251.322 66.7844 251.297L73.0531 243.763C73.0906 243.719 73.0844 243.653 73.0406 243.616C73.0281 243.606 73.0156 243.6 73.0031 243.597L68.9906 242.409C68.95 242.397 68.9094 242.409 68.8813 242.441L61.5094 251.156ZM155.231 252.728C155.028 252.981 154.803 253.181 154.553 253.331C154.084 253.609 153.831 253.766 153.794 253.797C151.191 255.8 148.525 257.719 145.803 259.553C143.431 261.156 141.203 262.884 138.788 264.378C138.375 264.631 138.081 265.019 137.909 265.541C136.55 269.6 135.225 273.569 133.931 277.453C133.897 277.556 133.934 277.609 134.044 277.606L137.847 277.578C137.987 277.575 138.078 277.509 138.125 277.378C139.347 273.85 140.444 270.434 141.419 267.131C141.466 266.978 141.553 266.847 141.681 266.734C143.938 264.769 146.613 263.122 149.225 261.391C151.328 259.994 153.316 258.416 155.375 257.013C155.741 256.763 156.222 256.503 156.825 256.238L158.525 259.65C158.466 259.809 158.4 259.916 158.328 259.969C156.241 261.525 154.053 262.884 152.041 264.441C150.125 265.925 148.231 267.347 146.366 268.706C145.8 269.119 145.65 269.609 145.441 270.25C144.15 274.2 142.891 278.181 141.663 282.194C141.603 282.391 141.675 282.491 141.881 282.491L145.572 282.513C145.666 282.513 145.747 282.453 145.775 282.363C146.928 278.422 148.025 274.759 149.069 271.381C149.159 271.091 149.316 270.853 149.538 270.666C152.909 267.853 156.434 265.228 160.112 262.791C160.356 262.631 160.606 262.494 160.859 262.384C160.959 262.344 161.072 262.369 161.138 262.45C161.847 263.294 162.472 264.181 163.013 265.113C163.169 265.381 163.122 265.606 162.869 265.791C159.916 267.938 156.897 270.316 153.809 272.931C153.697 273.028 153.616 273.153 153.572 273.297L150.822 282.359C150.781 282.497 150.828 282.566 150.962 282.566L155.075 282.581L158.425 282.516C158.528 282.513 158.597 282.463 158.625 282.359C159.184 280.331 159.669 278.428 160.084 276.644C160.269 275.853 160.678 275.213 161.319 274.722C162.775 273.606 164.147 272.516 165.438 271.453C165.688 271.247 165.991 271.113 166.313 271.069C168.984 270.709 171.644 270.325 174.291 269.922C178.459 269.284 182.616 269.122 186.766 269.25C186.825 269.253 186.878 269.206 186.881 269.147C186.881 269.134 186.881 269.119 186.875 269.106L185.038 263.384L181.787 252.894L180.281 248.188C180.2 247.938 180.031 247.838 179.772 247.888L155.231 252.728ZM137.288 254.578C127.122 250.563 116.009 248.256 105.334 249.256C101.928 249.575 98.6594 250.338 95.525 251.541C95.0281 251.731 95.0437 251.85 95.5719 251.903C98.6719 252.213 101.809 252.466 104.775 253.153C108.059 253.919 111.244 254.8 114.328 255.797C119.275 257.397 124.175 259.131 129.022 261C130.494 261.569 131.959 262.175 133.416 262.819C133.522 262.866 133.647 262.856 133.744 262.788L141.925 257.166C142.066 257.069 142.1 256.875 142.003 256.734C141.975 256.691 141.934 256.656 141.888 256.634C140.406 255.894 138.875 255.206 137.288 254.578ZM215.353 269.006C217.609 268.625 219.125 266.453 218.734 264.159C218.347 261.863 216.203 260.312 213.947 260.694C211.691 261.075 210.175 263.247 210.566 265.541C210.953 267.838 213.097 269.388 215.353 269.006ZM226.644 269.056C228.909 269.053 230.741 267.166 230.737 264.841C230.734 262.516 228.894 260.634 226.631 260.638C224.366 260.641 222.534 262.528 222.538 264.853C222.541 267.178 224.381 269.059 226.644 269.056Z" fill="#000008"/>
<path d="M224.622 127.303C226.425 127.853 228.172 128.459 229.856 129.119C232.316 130.084 234.788 131.013 237.275 131.909C244.309 134.441 251.344 136.981 258.372 139.531C259.269 139.856 260.45 140.481 261.909 141.409C261.181 141.369 260.463 141.325 259.753 141.272C250.791 140.606 244.119 146.875 239.866 153.963C237.65 157.653 235.819 161.284 234.378 164.85C233.184 167.806 232.409 170.931 232.053 174.222C232.022 174.194 231.984 174.209 231.941 174.263C231.859 174.363 231.8 174.353 231.759 174.234C231.756 174.225 231.753 174.213 231.756 174.2C231.759 174.116 231.716 174.072 231.622 174.072C231.416 174.072 231.219 174.006 231.034 173.872C230.894 173.769 230.744 173.688 230.584 173.622C230.3 173.509 229.994 173.422 229.672 173.363C229.347 173.303 229.025 173.213 228.709 173.088C228.325 172.938 227.953 172.781 227.591 172.622C227.262 172.475 226.888 172.397 226.469 172.381C226.003 172.366 225.541 172.259 225.081 172.062C224.616 171.866 224.141 171.709 223.653 171.594C223.206 171.491 222.772 171.331 222.344 171.122C221.441 170.681 220.575 170.238 219.747 169.794C219.291 169.55 218.803 169.256 218.288 168.913C217.822 168.603 217.35 168.303 216.872 168.013C216.781 167.959 216.681 167.934 216.578 167.941C215.931 167.975 215.459 167.794 215.163 167.391C215.441 166.856 215.628 166.319 215.897 165.797C216.841 163.975 217.669 162.084 218.384 160.131C218.425 160.022 218.375 159.903 218.272 159.85L212.609 157.041C212.481 156.978 212.431 156.825 212.491 156.7C212.491 156.7 212.491 156.697 212.494 156.697C213.209 155.278 213.881 153.853 214.516 152.422C215.981 149.119 217.3 145.45 218.691 141.963C219.087 140.972 219.847 139.031 220.969 136.147C222.122 133.175 223.341 130.225 224.622 127.303Z" fill="#2E3753"/>
<path d="M204.319 137.987L210.947 145.747C211.041 145.856 211.056 145.975 210.994 146.103C209.719 148.737 208.281 151.291 206.684 153.766C206.594 153.903 206.631 154.091 206.769 154.181C206.778 154.187 206.788 154.194 206.797 154.197L211.95 156.875C212.094 156.95 212.128 157.059 212.056 157.203C208.819 163.769 205.869 169.937 203.209 175.712C201.634 179.134 200.069 182.362 198.503 185.784C195.131 193.144 191.934 200.544 188.909 207.981C188.316 209.441 187.712 211.006 187.1 212.684C186.341 214.766 185.394 216.803 184.588 218.925C182.703 223.891 180.778 228.903 178.816 233.969C178.809 233.981 178.184 235.669 176.938 239.031C176.278 240.806 175.563 242.569 174.784 244.322C174.225 243.825 173.825 243.141 173.584 242.272C172.156 237.169 170.734 232.062 169.316 226.953C168.941 225.6 168.663 224.234 168.284 222.894C167.628 220.569 167.006 218.047 166.416 215.331C165.025 208.909 163.769 202.287 162.647 195.466C162.628 195.347 162.519 195.269 162.4 195.284C162.397 195.284 162.394 195.284 162.391 195.287L156.331 196.481C156.1 196.528 155.944 196.75 155.981 196.984C157.813 208.869 159.984 220.703 162.5 232.487C162.916 234.441 163.375 236.475 163.875 238.584C164.478 241.125 165.069 243.669 165.647 246.219L160.869 246.878C160.7 246.903 160.6 246.831 160.566 246.666C156.997 228.15 153.928 210.666 151.359 194.212C150.891 191.216 150.428 188.212 149.975 185.206C149.666 183.166 149.375 181.094 149.1 178.994C148.259 172.584 147.431 166.109 146.609 159.562C146.263 156.8 146.713 153.903 147.856 151.212C148.147 150.534 148.422 149.884 148.681 149.262C148.772 149.041 148.938 148.8 149.175 148.547C149.497 148.2 149.6 147.909 149.484 147.678L158.003 141.75C158.438 141.837 158.666 141.956 158.681 142.109C159.144 146.081 159.516 150.041 159.8 153.994C159.947 156.066 160.069 158.144 160.159 160.234C160.588 170.034 161.144 179.672 161.822 189.144C161.869 189.809 161.941 190.466 162.031 191.112C162.109 191.653 162.303 192.172 162.619 192.672C164.856 196.219 167.141 199.725 169.472 203.191C171.272 205.869 173.012 208.669 174.912 211.375C175.016 211.522 175.222 211.559 175.369 211.456C175.384 211.447 175.397 211.434 175.409 211.422C176.175 210.666 176.831 209.966 177.375 209.322C180.841 205.216 184.116 201.378 187.2 197.809C187.416 197.559 187.553 197.253 187.6 196.925C187.853 195.097 188.156 193.231 188.516 191.331C188.919 189.2 189.288 187.037 189.625 184.847C189.653 184.662 189.625 184.525 189.541 184.434C189.597 184.312 189.637 184.187 189.659 184.059C190.403 179.875 191.275 175.325 192.278 170.409C193.994 161.987 196.688 153.944 200.359 146.272C201.5 143.887 202.591 141.522 203.631 139.175C203.822 138.747 204.05 138.35 204.319 137.987ZM178.931 220.716C178.931 218.284 176.959 216.312 174.528 216.312C172.097 216.312 170.125 218.284 170.125 220.716C170.125 223.147 172.097 225.119 174.528 225.119C176.959 225.119 178.931 223.147 178.931 220.716Z" fill="#2E3753"/>
<path d="M215.162 167.391C215.459 167.794 215.931 167.975 216.578 167.941C216.681 167.934 216.781 167.959 216.872 168.013C217.35 168.303 217.822 168.603 218.287 168.913C218.803 169.256 219.291 169.55 219.747 169.794C220.575 170.238 221.441 170.681 222.344 171.122C222.772 171.331 223.206 171.491 223.653 171.594C224.141 171.709 224.616 171.866 225.081 172.062C225.541 172.259 226.003 172.366 226.469 172.381C226.887 172.397 227.262 172.475 227.591 172.622C227.953 172.781 228.325 172.938 228.709 173.088C229.025 173.213 229.347 173.303 229.672 173.363C229.994 173.422 230.3 173.509 230.584 173.622C230.744 173.688 230.894 173.769 231.034 173.872C231.219 174.006 231.416 174.072 231.622 174.072C231.716 174.072 231.759 174.116 231.756 174.2C231.753 174.213 231.756 174.225 231.759 174.234C231.8 174.353 231.859 174.363 231.941 174.263C231.984 174.209 232.022 174.194 232.053 174.222C231.844 176.572 231.784 178.134 231.878 178.909C232.044 180.234 232.175 181.563 232.275 182.894C232.378 184.272 232.762 186.506 233.425 189.591C233.331 189.872 233.35 190.347 233.478 191.019C233.578 191.534 233.369 191.794 232.847 191.8C232.662 191.803 232.497 191.863 232.35 191.978C232.272 192.038 232.191 192.047 232.1 192.006C231.766 191.85 231.434 191.772 231.103 191.772C230.8 191.772 230.503 191.722 230.212 191.622C229.725 191.456 229.237 191.4 228.747 191.459C228.725 191.463 228.706 191.447 228.703 191.425C228.703 191.422 228.703 191.419 228.703 191.416C228.709 191.369 228.694 191.331 228.656 191.303C228.606 191.269 228.547 191.253 228.475 191.259C228.197 191.284 227.931 191.259 227.675 191.188C227.441 191.122 227.2 191.081 226.953 191.072C226.469 191.053 226.034 190.941 225.65 190.731C225.434 190.616 225.194 190.531 224.931 190.481C224.666 190.434 224.412 190.397 224.166 190.372C224.087 190.366 224.05 190.4 224.047 190.478C224.047 190.516 224.062 190.544 224.091 190.563C224.187 190.628 224.294 190.634 224.409 190.588C224.437 190.578 224.466 190.575 224.497 190.584C224.584 190.613 224.619 190.672 224.603 190.763L224.506 191.278C222.884 189.138 220.575 185.825 217.578 181.341C216.762 180.119 214.956 177.631 212.166 173.881C212.087 173.663 212.112 173.425 212.234 173.169C212.834 171.897 213.812 169.969 215.162 167.391Z" fill="#171B32"/>
<path d="M212.166 173.881C214.956 177.631 216.763 180.119 217.578 181.341C220.575 185.825 222.884 189.138 224.506 191.278L226.244 193.759C226.306 193.847 226.284 193.891 226.175 193.891L202.325 193.881C203.247 192.109 204.128 190.338 204.963 188.572C207.109 184.038 209.278 179.513 211.469 175C211.634 174.656 211.866 174.284 212.166 173.881Z" fill="white"/>
<path d="M233.425 189.591C233.638 190.491 233.791 191.387 233.884 192.278C233.95 192.916 234.069 193.494 234.237 194.009C234.497 194.803 234.447 195.634 234.656 196.441C234.925 197.481 234.881 198.544 235.141 199.594C235.675 201.734 236.116 203.9 236.456 206.097C236.547 206.687 236.797 207.244 236.806 207.828C236.819 208.956 237.197 210.112 237.062 211.166C236.881 212.55 236.509 213.75 235.947 214.766C234.991 216.497 234.381 218.297 233.669 220.116C233.341 220.95 232.975 221.737 232.569 222.484C232.147 223.259 231.822 224.075 231.588 224.928C231.306 225.959 231.028 226.944 230.466 227.856C229.578 229.3 229.141 230.937 228.475 232.472C228.053 233.437 227.625 234.406 227.188 235.378C226.988 235.822 226.6 236.131 226.022 236.309C224.703 236.712 222.35 237.191 218.966 237.737C217.7 237.944 216.562 238.269 215.309 238.316C214.772 238.337 214.347 238.6 213.828 238.669C212.262 238.881 210.756 239.144 209.309 239.459C205.631 240.266 202.109 240.834 198.319 241.494C197.825 241.578 197.337 241.644 196.853 241.684C196.341 241.728 195.812 241.816 195.269 241.944C193.034 242.475 190.906 242.856 188.881 243.084C188.428 243.137 187.975 243.225 187.528 243.35C187.094 243.475 186.656 243.584 186.216 243.678C185.691 243.794 185.169 243.972 184.65 244.219C184.413 244.328 184.131 244.244 184 244.019C183.891 243.828 183.866 243.625 183.928 243.412C184.294 242.178 184.778 241.016 185.381 239.931C185.912 238.981 186.2 237.938 186.631 236.922C186.803 236.513 186.95 236.109 187.072 235.709C187.363 234.763 187.688 233.85 188.05 232.972C188.441 232.022 188.819 231.075 189.178 230.128C189.55 229.153 189.9 228.197 190.225 227.256C190.422 226.681 190.634 226.15 190.863 225.659C191.128 225.091 191.331 224.559 191.472 224.062C192.038 222.078 192.597 220.334 193.15 218.831C193.447 218.028 193.772 217.216 194.128 216.387C194.481 215.562 194.816 214.716 195.128 213.844C196.794 209.197 197.928 206.125 198.534 204.622C198.863 203.806 199.159 202.984 199.425 202.156C199.722 201.238 200.025 200.331 200.334 199.441C200.75 198.247 201.178 197.084 201.616 195.956C201.797 195.484 202.05 194.981 202.378 194.45C202.531 194.203 202.513 194.016 202.325 193.881L226.175 193.891C226.284 193.891 226.306 193.847 226.244 193.759L224.506 191.278L224.603 190.762C224.619 190.672 224.584 190.612 224.497 190.584C224.466 190.575 224.437 190.578 224.409 190.587C224.294 190.634 224.188 190.628 224.091 190.562C224.063 190.544 224.047 190.516 224.047 190.478C224.05 190.4 224.088 190.366 224.166 190.372C224.413 190.397 224.666 190.434 224.931 190.481C225.194 190.531 225.434 190.616 225.65 190.731C226.034 190.941 226.469 191.053 226.953 191.072C227.2 191.081 227.441 191.122 227.675 191.187C227.931 191.259 228.197 191.284 228.475 191.259C228.547 191.253 228.606 191.269 228.656 191.303C228.694 191.331 228.709 191.369 228.703 191.416C228.7 191.438 228.716 191.456 228.738 191.459C228.741 191.459 228.744 191.459 228.747 191.459C229.237 191.4 229.725 191.456 230.212 191.622C230.503 191.722 230.8 191.772 231.103 191.772C231.434 191.772 231.766 191.85 232.1 192.006C232.191 192.047 232.272 192.038 232.35 191.978C232.497 191.863 232.662 191.803 232.847 191.8C233.369 191.794 233.578 191.534 233.478 191.019C233.347 190.347 233.331 189.872 233.425 189.591Z" fill="#090916"/>
<path d="M174.784 244.322C173.669 244.669 172.934 244.875 172.581 244.938C170.203 245.366 167.891 245.791 165.647 246.219C165.069 243.669 164.478 241.125 163.875 238.584C163.375 236.475 162.916 234.441 162.5 232.488C159.984 220.703 157.813 208.869 155.981 196.984C155.944 196.75 156.1 196.528 156.331 196.481L162.391 195.288C162.506 195.263 162.622 195.338 162.644 195.456C162.644 195.459 162.644 195.463 162.647 195.466C163.769 202.288 165.025 208.909 166.416 215.331C167.006 218.047 167.628 220.569 168.284 222.894C168.663 224.234 168.941 225.6 169.316 226.953C170.734 232.063 172.156 237.169 173.584 242.272C173.825 243.141 174.225 243.825 174.784 244.322Z" fill="#090916"/>
<path d="M74.6688 223.887C72.7625 224.391 71.2438 225.059 70.1156 225.891C68.8063 226.853 67.4063 228.134 65.9156 229.737C62.7156 233.181 59.55 236.656 56.4156 240.159C54.1344 242.709 51.8969 245.319 49.7 247.987L47.3469 244.269C47.2875 244.178 47.2969 244.091 47.3688 244.009C52.4875 238.309 57.5531 232.2 62.8063 226.969C66.0844 223.7 70.2594 223.175 74.6688 223.887Z" fill="#000008"/>
<path d="M74.6687 223.887C75.5969 223.956 76.6469 224.122 77.8188 224.381C80.9938 225.088 84.0969 225.916 87.3125 226.588C89.0469 226.947 90.8031 227.344 92.5844 227.775L94.6219 231.637C90.1844 236.603 85.6937 241.466 81.1531 246.228C80.5344 246.875 79.3969 247.966 77.7406 249.497C77.4156 249.8 77.0562 249.988 76.6656 250.062C76.25 250.144 75.8313 250.194 75.4125 250.216L73.3406 250.291C72.8531 250.309 72.8125 250.184 73.2188 249.916C74.125 249.319 74.6437 248.525 75.3687 247.778C76.3781 246.744 77.3937 245.7 78.4187 244.65C80.9031 242.106 82.5375 239.244 80.1812 235.931C79.025 234.306 77.2562 233.347 75.2531 233.087C72.4781 232.734 70.025 233.547 67.8969 235.531C67.05 235.934 66.3531 236.416 65.8094 236.978C62.7625 240.138 59.7031 243.284 56.6281 246.413C56.6156 246.425 56.0469 247.041 54.925 248.259C54.2812 248.959 53.5031 249.716 52.5875 250.525C52.4312 250.662 52.3781 250.831 52.425 251.028C52.2812 251.047 52.1156 251.109 51.9312 251.212L49.7 247.987C51.8969 245.319 54.1344 242.709 56.4156 240.159C59.55 236.656 62.7156 233.181 65.9156 229.737C67.4062 228.134 68.8062 226.853 70.1156 225.891C71.2437 225.059 72.7625 224.391 74.6687 223.887Z" fill="#FF7260"/>
<path d="M94.6219 231.637C94.9938 233.247 95.1312 234.922 95.0344 236.669C95.0281 236.781 94.975 236.888 94.8875 236.956C92.125 239.181 89.5594 241.369 87.1937 243.519C84.7094 245.772 82.2844 247.963 79.925 250.084C79.8469 250.153 79.7563 250.194 79.6531 250.206C78.2344 250.384 76.8219 250.388 75.4125 250.216C75.8313 250.194 76.25 250.144 76.6656 250.063C77.0563 249.988 77.4156 249.8 77.7406 249.497C79.3969 247.966 80.5344 246.875 81.1531 246.228C85.6938 241.466 90.1844 236.603 94.6219 231.637Z" fill="#9B2C5E"/>
<path d="M67.8969 235.531C67.0281 236.631 66.1406 237.675 65.3938 238.856C64.225 240.703 63.0656 242.569 61.7781 244.406C60.3063 246.503 58.95 248.638 57.7063 250.809C57.6156 250.966 57.4531 251.069 57.2719 251.075C56.05 251.131 54.7344 251.156 53.3281 251.15C53.1375 251.147 52.8344 251.106 52.425 251.028C52.3781 250.831 52.4313 250.663 52.5875 250.525C53.5031 249.716 54.2813 248.959 54.925 248.259C56.0469 247.041 56.6156 246.425 56.6281 246.413C59.7031 243.284 62.7625 240.138 65.8094 236.978C66.3531 236.416 67.0469 235.934 67.8969 235.531Z" fill="#9B2C5E"/>
<path d="M109.606 236.816L109.419 243.838C109.416 243.947 109.356 244 109.244 243.997C105.959 243.869 102.653 243.872 99.3281 244.006C99.2594 244.009 99.2 243.956 99.2 243.888C99.2 243.881 99.2 243.875 99.2 243.869L100.053 237.116L109.606 236.816Z" fill="#C5C3AB"/>
<path d="M85.0406 254.766L79.1687 254.859C81.2062 254.356 83.1656 254.325 85.0406 254.766Z" fill="#C5C3AB"/>
<path d="M85.0406 254.766C86.8125 254.975 88.0844 255.519 88.85 256.4C88.6781 256.978 88.3812 257.344 87.9562 257.491C85.3031 258.406 82.575 258.706 79.7719 258.394C78.925 258.297 77.8 257.566 76.6687 257.544C76.5625 257.541 76.475 257.5 76.4062 257.422C76.2281 257.219 76.0844 256.919 75.975 256.528C76.5406 255.522 77.6031 254.966 79.1687 254.859L85.0406 254.766Z" fill="white"/>
<path d="M88.85 256.4L88.7719 259.372C87.7469 259.987 86.4125 260.4 84.7688 260.603C81.4656 261.012 78.5094 260.659 75.8938 259.544C75.7781 259.066 75.7656 258.644 75.8563 258.278C75.8781 258.178 75.8844 258.078 75.8688 257.975C75.8156 257.597 75.8531 257.113 75.975 256.528C76.0844 256.919 76.2281 257.219 76.4063 257.422C76.475 257.5 76.5625 257.541 76.6688 257.544C77.8 257.566 78.925 258.297 79.7719 258.394C82.575 258.706 85.3031 258.406 87.9563 257.491C88.3813 257.344 88.6781 256.978 88.85 256.4Z" fill="#FF7260"/>
<path d="M88.7719 259.372C88.8969 259.994 88.8656 260.647 88.6781 261.334C85.6969 262.656 82.5469 263.012 79.225 262.4C78.1156 262.197 77.0406 261.806 75.9938 261.231L75.8938 259.544C78.5094 260.659 81.4656 261.012 84.7688 260.603C86.4125 260.4 87.7469 259.987 88.7719 259.372Z" fill="white"/>
<path d="M75.9938 261.231C77.0406 261.806 78.1156 262.197 79.225 262.4C82.5469 263.012 85.6969 262.656 88.6781 261.334L88.7031 263.256C87.2719 264.022 85.675 264.456 83.9094 264.566C81.1688 264.734 78.3813 264.666 75.9156 263.491L75.9938 261.231Z" fill="#FF7260"/>
<path d="M129.994 265.103C129.259 265.641 128.534 265.975 127.822 266.106C125.713 266.497 123.422 266.553 120.944 266.272C119.872 266.15 118.722 265.809 117.494 265.256C117.403 264.953 117.469 264.669 117.691 264.397C118.825 263.009 121.444 262.819 123.2 262.781C125.5 262.731 127.906 263.009 129.819 264.175C130.125 264.362 130.184 264.672 129.994 265.103Z" fill="white"/>
<path d="M88.7031 263.256C88.8125 263.994 88.7906 264.675 88.6375 265.297C86.8313 266.169 85.0813 266.347 83.1281 266.366C80.4719 266.388 78.3469 266.25 75.9813 265.231L75.9156 263.491C78.3813 264.666 81.1688 264.734 83.9094 264.566C85.6719 264.456 87.2719 264.022 88.7031 263.256Z" fill="white"/>
<path d="M129.994 265.103C130.122 265.353 130.178 265.631 130.159 265.941C130.125 266.494 130.078 267.081 130.022 267.703C125.85 269.412 121.644 269.378 117.397 267.597L117.494 265.256C118.722 265.809 119.872 266.15 120.944 266.272C123.422 266.553 125.713 266.497 127.822 266.106C128.534 265.975 129.256 265.641 129.994 265.103Z" fill="#2E3753"/>
<path d="M75.9812 265.231C78.3469 266.25 80.4719 266.387 83.1281 266.366C85.0813 266.347 86.8313 266.169 88.6375 265.297L88.6125 267.409C88.6094 267.519 88.5656 267.603 88.4781 267.663C88.0531 267.959 87.8781 268.163 87.9562 268.269C85.5062 269.013 82.9344 269.256 80.2406 269.003C79.225 268.906 78.2344 268.694 77.2687 268.366C76.6031 268.138 76.0875 267.806 75.7188 267.378C75.9406 266.875 76.0281 266.159 75.9812 265.231Z" fill="#FF7260"/>
<path d="M130.022 267.703C130.131 268.263 130.128 268.847 130.016 269.456C128.331 270.231 126.741 270.637 125.244 270.675C122.55 270.744 120.416 270.669 117.981 269.678C117.541 269.5 117.341 269.222 117.381 268.847L117.397 267.597C121.641 269.378 125.85 269.413 130.022 267.703Z" fill="white"/>
<path d="M117.381 268.847C117.341 269.222 117.541 269.5 117.981 269.678C120.416 270.669 122.55 270.744 125.244 270.675C126.741 270.637 128.331 270.231 130.016 269.456L130.047 271.612C129.372 271.959 128.603 272.228 127.741 272.425C124.159 273.241 120.7 272.953 117.366 271.562L117.381 268.847Z" fill="#2E3753"/>
<path d="M117.297 281.075C117.122 281.85 117.081 282.775 117.719 283.416C119.597 285.303 124.291 285.084 126.794 284.966C126.9 284.963 127 284.984 127.097 285.038L127.306 285.15C127.672 285.428 128.059 285.659 128.469 285.844C133.341 288.05 138.209 290.256 143.081 292.463C149.362 295.309 155.503 298.156 161.503 301.003C165.791 303.038 169.944 304.888 173.962 306.547C174.484 306.763 174.466 306.897 173.9 306.947C170.919 307.213 167.65 307.409 164.091 307.538C163.888 307.544 163.694 307.503 163.509 307.419C160.106 305.825 156.678 304.259 153.222 302.719C147.522 300.184 141.216 296.988 136.275 294.753C126.244 290.216 119.9 287.288 117.247 285.966C112.484 283.597 107.909 281.425 103.519 279.453C100.716 278.194 97.2031 277.056 94.0531 276.394C88.9719 275.328 83.8344 274.647 78.6375 274.353C76.8375 274.25 75.1063 274.278 73.4469 274.434C73.0156 274.475 72.5625 274.347 72.2563 274.019C71.3469 273.044 70.3688 272.156 69.3219 271.353C68.7938 270.947 68.3406 270.403 67.9469 269.866C67.9062 269.809 67.9219 269.731 67.9781 269.691C67.9969 269.678 68.0219 269.669 68.0438 269.669C75.1906 269.394 82.4156 269.788 89.7125 270.847C95.7781 271.728 101.234 273.153 106.734 275.559C109.937 276.956 113.181 278.394 116.466 279.872C116.988 280.106 117.266 280.509 117.297 281.075Z" fill="#2A626E"/>
<path d="M117.366 271.562C120.7 272.953 124.159 273.241 127.741 272.425C128.603 272.228 129.372 271.959 130.047 271.612L129.991 273.456C127.681 274.384 125.184 274.794 122.503 274.678C120.688 274.6 118.981 274.125 117.384 273.25C117.25 272.775 117.244 272.212 117.366 271.562Z" fill="white"/>
<path d="M117.384 273.25C118.981 274.125 120.688 274.6 122.503 274.678C125.184 274.794 127.681 274.384 129.991 273.456L129.897 275.541C128.831 275.994 127.75 276.306 126.647 276.475C124.244 276.841 121.85 276.784 119.469 276.3C118.903 276.187 118.194 275.95 117.341 275.584L117.384 273.25Z" fill="#FF7260"/>
<path d="M189.931 274.194C189.391 274.238 188.219 274.366 186.413 274.575C183.106 274.963 180.191 275.387 177.663 275.85C176.559 276.053 175.262 276.425 173.766 276.966C172.462 276.563 171.259 276.063 170.159 275.472C169.731 275.244 169.759 275.1 170.241 275.047C175.019 274.506 179.706 274.219 184.303 274.181C186.166 274.166 188.041 274.172 189.931 274.194Z" fill="#9B2C5E"/>
<path d="M189.931 274.194C193.119 274.15 196.322 274.137 199.538 274.153C200.016 274.156 200.753 274.347 201.747 274.731C210.325 278.028 218.888 281.375 227.431 284.766C228.753 285.291 230.037 285.947 231.281 286.737C230.303 287.509 229.025 288.344 227.453 289.244C225.203 290.534 222.953 291.819 220.7 293.103C219.084 294.025 217.662 294.716 216.441 295.169L215.666 295.222C215.563 295.231 215.466 295.213 215.375 295.166C212.784 293.888 210.416 292.803 208.275 291.916C203.378 289.884 198.484 287.812 193.591 285.7C187.822 283.209 182.794 281.087 178.509 279.328C176.853 278.65 175.344 277.812 173.766 276.966C175.262 276.425 176.559 276.053 177.663 275.85C180.191 275.387 183.106 274.962 186.413 274.575C188.219 274.366 189.391 274.237 189.931 274.194Z" fill="#FFA664"/>
<path d="M129.897 275.541L129.991 277.228C129.15 277.634 128.269 277.941 127.35 278.147C123.831 278.938 120.503 278.694 117.369 277.416L117.341 275.584C118.194 275.95 118.903 276.187 119.469 276.3C121.85 276.784 124.244 276.841 126.647 276.475C127.747 276.306 128.831 275.994 129.897 275.541Z" fill="white"/>
<path d="M156.209 306.519C156.828 306.788 157.422 307.059 157.991 307.331C158.081 307.375 158.134 307.444 158.144 307.534C158.15 307.597 158.103 307.656 158.038 307.663C158.031 307.663 158.025 307.663 158.019 307.663C154.953 307.469 151.847 307.403 148.85 307.103C140.594 306.281 132.528 304.803 124.656 302.675C118.834 301.103 113.484 299.166 108.606 296.863C105.834 295.556 102.591 293.969 98.8688 292.103C90.7906 288.047 83.125 283.003 75.9219 277.438C75.6844 277.253 75.4938 277.025 75.3469 276.753C75.3 276.669 75.3313 276.562 75.4156 276.516C75.4406 276.503 75.4688 276.494 75.4969 276.494C77.6438 276.447 79.6844 276.509 81.6188 276.681C87.1969 277.184 92.4781 278.169 97.4625 279.634C99.4719 280.225 101.478 280.988 103.481 281.922C112.872 286.294 122.213 290.875 131.684 295.138C133.656 296.025 135.541 296.903 137.338 297.772C144.681 301.325 150.972 304.241 156.209 306.519Z" fill="#2A626E"/>
<path d="M129.991 277.228L129.978 279.5C128.663 279.931 127.631 280.197 126.881 280.297C123.925 280.684 120.331 280.841 117.641 279.378C117.544 279.325 117.475 279.247 117.434 279.144C117.234 278.631 117.484 278.231 117.075 277.741C117.313 277.369 117.409 277.259 117.369 277.416C120.503 278.694 123.831 278.937 127.35 278.147C128.269 277.941 129.147 277.634 129.991 277.228Z" fill="#FF7260"/>
<path d="M117.297 281.075C119.006 281.856 120.247 282.306 121.019 282.422C124.184 282.9 127.144 282.537 129.903 281.341L129.709 283.516C129.697 283.662 129.775 283.803 129.909 283.866L132.1 284.891C131.141 284.741 130.188 284.784 129.241 285.025C128.738 285.153 128.362 285.153 127.897 285.056C127.656 285.006 127.459 285.037 127.306 285.15L127.097 285.037C127 284.984 126.9 284.962 126.794 284.966C124.291 285.084 119.597 285.303 117.719 283.416C117.081 282.775 117.122 281.85 117.297 281.075Z" fill="#FF7260"/>
<path d="M156.903 39.7094C157.187 40.5813 157.481 41.4531 157.787 42.3188C158.116 43.2531 158.416 44.2031 158.684 45.1688C159.962 49.7938 161.425 54.0969 162.516 58.5938C162.731 59.475 163.147 60.4625 163.412 61.4125C164.437 65.0656 165.466 68.7844 166.5 72.575C166.019 71.9469 165.587 71.3344 165.206 70.7313C164.597 69.7719 164.175 69.15 163.947 68.8656C162.041 66.4938 159.672 64.7406 156.844 63.6125C156.725 63.5625 156.637 63.4594 156.612 63.3344C154.697 53.2406 152.694 43.0781 150.606 32.8469C150.45 32.0719 150.266 31.2281 150.053 30.3188C149.947 29.8688 150.028 29.8344 150.294 30.2125L156.903 39.7094Z" fill="#FF7260"/>
<path d="M156.903 39.7094C157.769 40.6875 158.566 41.6188 159.347 42.7156C162.687 47.4125 166.388 52.1188 169.634 57.0844C170.65 58.6375 171.381 59.9656 171.834 61.0719C173.262 64.5656 172.891 68.7969 171.25 72.2719C170.447 73.9688 169.237 75.3813 167.619 76.5125C167.516 76.5844 167.447 76.5594 167.419 76.4375L166.5 72.575C165.466 68.7844 164.437 65.0656 163.412 61.4125C163.147 60.4625 162.731 59.475 162.516 58.5938C161.425 54.0969 159.963 49.7938 158.684 45.1688C158.416 44.2031 158.116 43.2531 157.788 42.3188C157.481 41.4531 157.184 40.5813 156.903 39.7094Z" fill="#9B2C5E"/>
<path d="M137.137 87.7406C135.759 90.6063 133.559 92.0531 130.531 92.0813C130.419 92.0813 130.375 92.0281 130.4 91.9188C131.259 88.2656 134.278 86.8656 137.637 86.375C137.706 86.3625 137.769 86.4094 137.781 86.4781C137.787 86.5063 137.781 86.5375 137.766 86.5625C137.541 86.9469 137.331 87.3406 137.137 87.7406Z" fill="#FF7260"/>
<path d="M161.831 119.594C162.434 120.084 162.997 120.544 163.522 120.969C164.034 121.384 164.556 121.753 165.088 122.078C166.928 123.206 168.366 124.244 169.394 125.184C170.903 126.569 172.447 128.231 174.025 130.178C175.847 132.425 177.659 134.65 179.459 136.859C180.216 137.784 180.859 138.8 181.603 139.731C181.656 139.8 181.656 139.869 181.6 139.938L178.434 143.753C178.384 143.809 178.3 143.819 178.244 143.769C178.241 143.766 178.237 143.763 178.234 143.763C177.816 143.347 177.456 142.897 177.159 142.413C175.528 139.778 173.694 137.428 172.062 134.931C170.281 132.203 168.272 129.566 166.447 126.841C164.919 124.563 163.416 122.266 161.931 119.953C161.853 119.831 161.766 119.722 161.663 119.619C161.591 119.547 161.603 119.519 161.703 119.534C161.75 119.544 161.794 119.563 161.831 119.594Z" fill="#FF7260"/>
<path d="M174.528 225.119C176.96 225.119 178.931 223.147 178.931 220.716C178.931 218.284 176.96 216.313 174.528 216.313C172.096 216.313 170.125 218.284 170.125 220.716C170.125 223.147 172.096 225.119 174.528 225.119Z" fill="#000008"/>
<path d="M196.384 254.347L193.422 244.291C196.959 243.688 200.478 243.044 203.975 242.353C206.397 241.875 208.441 241.481 210.112 241.172C215.441 240.178 220.819 239.119 226.247 237.994C228.284 237.572 230.328 237.156 232.375 236.75C235.025 236.228 238.162 235.578 241.791 234.8C242.05 234.747 242.306 234.769 242.562 234.869C248.069 237.009 253.534 239.081 258.962 241.091C259.394 241.25 259.391 241.403 258.956 241.553C258.659 241.653 258.35 241.734 258.025 241.797C254.034 242.553 250.187 243.203 246.225 244.091C239.297 245.638 232.416 247.072 225.581 248.388C222.197 249.038 218.759 249.944 215.369 250.619C209.053 251.875 202.725 253.119 196.384 254.347Z" fill="#2E3753"/>
<path d="M61.5094 251.156L68.8812 242.441C68.9094 242.409 68.95 242.397 68.9906 242.409L73.0031 243.597C73.0594 243.613 73.0906 243.669 73.0719 243.725C73.0688 243.738 73.0594 243.753 73.0531 243.763L66.7844 251.297C66.7656 251.322 66.7344 251.334 66.7031 251.334L61.5875 251.325C61.5313 251.325 61.4844 251.278 61.4844 251.222C61.4844 251.197 61.4938 251.175 61.5094 251.156Z" fill="#FFA664"/>
<path d="M193.422 244.291L196.384 254.347L198.603 261.841L189.969 263.175L184.731 246.403C184.697 246.291 184.759 246.172 184.872 246.138C184.881 246.134 184.888 246.134 184.897 246.131C187.828 245.647 190.669 245.034 193.422 244.291Z" fill="white"/>
<path d="M181.787 252.894C175.847 253.863 169.937 254.988 164.053 256.272C163.256 256.447 162.456 256.619 161.659 256.791C161.197 256.888 160.856 257.072 160.634 257.344C160.016 258.109 159.391 258.869 158.763 259.625C158.728 259.663 158.65 259.672 158.525 259.65L156.825 256.238L155.231 252.728L179.772 247.888C180.031 247.838 180.2 247.938 180.281 248.188L181.787 252.894Z" fill="white"/>
<path d="M137.287 254.578C138.875 255.206 140.409 255.894 141.888 256.634C142.041 256.709 142.103 256.897 142.025 257.05C142.003 257.097 141.966 257.138 141.925 257.166L133.744 262.787C133.647 262.856 133.522 262.866 133.416 262.819C131.959 262.175 130.494 261.569 129.022 261C124.175 259.131 119.275 257.397 114.328 255.797C111.244 254.8 108.059 253.919 104.775 253.153C101.809 252.466 98.6719 252.213 95.5719 251.903C95.0437 251.85 95.0281 251.731 95.525 251.541C98.6594 250.338 101.928 249.575 105.334 249.256C116.009 248.256 127.122 250.563 137.287 254.578Z" fill="#FFA664"/>
<path d="M155.231 252.728L156.825 256.238C156.222 256.503 155.741 256.763 155.375 257.013C153.316 258.416 151.328 259.994 149.225 261.391C146.612 263.122 143.937 264.769 141.681 266.734C141.553 266.847 141.466 266.978 141.419 267.131C140.444 270.434 139.347 273.85 138.125 277.378C138.078 277.509 137.987 277.575 137.847 277.578L134.044 277.606C133.934 277.609 133.897 277.556 133.931 277.453C135.225 273.569 136.55 269.6 137.909 265.541C138.081 265.019 138.375 264.631 138.787 264.378C141.203 262.884 143.431 261.156 145.803 259.553C148.525 257.719 151.191 255.8 153.794 253.797C153.831 253.766 154.084 253.609 154.553 253.331C154.803 253.181 155.028 252.981 155.231 252.728Z" fill="#FF7260"/>
<path d="M181.787 252.894L185.037 263.384C184.447 263.522 183.844 263.628 183.228 263.7C182.359 263.8 181.756 263.881 181.416 263.944C176.503 264.841 172.188 265.794 166.863 266.597C165.9 266.744 165.087 267.081 164.337 267.694C162.603 269.113 160.794 270.634 158.909 272.263C157.972 273.075 157.184 273.766 156.978 274.616C156.35 277.244 155.716 279.897 155.075 282.581L150.962 282.566C150.828 282.566 150.781 282.497 150.822 282.359L153.572 273.297C153.616 273.153 153.697 273.028 153.809 272.931C156.897 270.316 159.916 267.938 162.869 265.791C163.122 265.606 163.169 265.381 163.013 265.113C162.472 264.181 161.847 263.294 161.138 262.45C161.072 262.369 160.959 262.344 160.859 262.384C160.606 262.494 160.356 262.631 160.112 262.791C156.434 265.228 152.909 267.853 149.537 270.666C149.316 270.853 149.159 271.091 149.069 271.381C148.025 274.759 146.928 278.422 145.775 282.363C145.747 282.453 145.666 282.513 145.572 282.513L141.881 282.491C141.675 282.491 141.603 282.391 141.662 282.194C142.891 278.181 144.15 274.2 145.441 270.25C145.65 269.609 145.8 269.119 146.366 268.706C148.231 267.347 150.125 265.925 152.041 264.441C154.053 262.884 156.241 261.525 158.328 259.969C158.4 259.916 158.466 259.809 158.525 259.65C158.65 259.672 158.728 259.663 158.762 259.625C159.391 258.869 160.016 258.109 160.634 257.344C160.856 257.072 161.197 256.888 161.659 256.791C162.456 256.619 163.256 256.447 164.053 256.272C169.934 254.988 175.847 253.863 181.787 252.894Z" fill="#FF7260"/>
<path d="M215.362 269.001C217.619 268.619 219.133 266.449 218.745 264.153C218.356 261.857 216.212 260.306 213.956 260.688C211.699 261.069 210.185 263.24 210.573 265.535C210.962 267.831 213.106 269.383 215.362 269.001Z" fill="white"/>
<path d="M226.645 269.057C228.91 269.053 230.742 267.165 230.738 264.84C230.734 262.515 228.895 260.634 226.63 260.638C224.366 260.642 222.534 262.53 222.538 264.854C222.542 267.179 224.381 269.061 226.645 269.057Z" fill="white"/>
<path d="M198.603 261.841L200.594 268.906C200.641 269.078 200.575 269.166 200.397 269.169L191.947 269.184C191.875 269.184 191.831 269.15 191.809 269.084L189.969 263.175L198.603 261.841Z" fill="#C5C3AB"/>
<path d="M185.037 263.384L186.875 269.106C186.894 269.163 186.863 269.225 186.806 269.244C186.794 269.247 186.781 269.25 186.766 269.25C182.616 269.122 178.459 269.284 174.291 269.922C171.644 270.325 168.984 270.709 166.313 271.069C165.991 271.113 165.688 271.247 165.438 271.453C164.147 272.516 162.775 273.606 161.319 274.722C160.678 275.213 160.269 275.853 160.084 276.644C159.669 278.428 159.184 280.331 158.625 282.359C158.597 282.463 158.528 282.513 158.425 282.516L155.075 282.581C155.716 279.897 156.35 277.244 156.978 274.616C157.184 273.766 157.972 273.075 158.909 272.263C160.794 270.634 162.603 269.113 164.338 267.694C165.088 267.081 165.9 266.744 166.863 266.597C172.188 265.794 176.503 264.841 181.416 263.944C181.756 263.881 182.359 263.8 183.228 263.7C183.844 263.628 184.447 263.522 185.037 263.384Z" fill="#9B2C5E"/>
<path d="M128.366 284.941L124.85 284.994C125.994 284.806 127.166 284.791 128.366 284.941Z" fill="#C5C3AB"/>
<path d="M125.522 281.941L129.038 281.888C130.563 282.009 134.744 282.588 134.431 284.503C133.238 285.275 132.044 285.694 130.85 285.759C129.228 285.853 127.95 285.881 127.019 285.847C125.272 285.781 123.512 285.369 121.734 284.609C121.522 284.519 121.431 284.184 121.459 283.609C122.069 283.006 122.672 282.603 123.272 282.4C123.95 282.166 124.7 282.013 125.522 281.941Z" fill="white"/>
<path d="M121.459 283.609C121.431 284.184 121.522 284.519 121.734 284.609C123.512 285.369 125.272 285.781 127.019 285.847C127.95 285.881 129.228 285.853 130.85 285.759C132.044 285.694 133.237 285.275 134.431 284.503C134.637 285.703 134.647 286.95 134.459 288.247L134.466 287.541C134.466 287.403 134.356 287.294 134.219 287.294C134.187 287.294 134.159 287.3 134.131 287.309C130.631 288.638 126.45 288.953 122.916 287.681C122.381 287.488 121.834 287.278 121.281 287.056C121.034 285.806 121.094 284.659 121.459 283.609Z" fill="#2E3753"/>
<path d="M134.459 288.247V288.8C133.553 289.478 132.481 289.897 131.241 290.063C129.944 290.234 128.641 290.334 127.338 290.366C125.184 290.419 123.175 289.903 121.306 288.813L121.281 287.056C121.834 287.278 122.381 287.488 122.916 287.681C126.45 288.953 130.631 288.638 134.131 287.309C134.259 287.263 134.4 287.325 134.45 287.453C134.459 287.481 134.466 287.513 134.466 287.541L134.459 288.247Z" fill="white"/>
<path d="M134.459 288.8L134.425 291.25C133.769 291.684 133.188 291.969 132.684 292.103C128.894 293.125 125.184 292.897 121.559 291.419C121.456 291.378 121.375 291.406 121.322 291.503C121.291 291.559 121.278 291.634 121.284 291.725C121.225 291.316 121.256 290.953 121.372 290.644C121.409 290.547 121.425 290.447 121.416 290.344L121.306 288.813C123.175 289.903 125.184 290.419 127.338 290.366C128.641 290.334 129.944 290.234 131.241 290.063C132.481 289.897 133.553 289.475 134.459 288.8Z" fill="#2E3753"/>
<path d="M134.425 291.25C134.509 292.013 134.481 292.816 133.831 293.325C133.378 293.678 132.916 293.925 132.444 294.066C129.094 295.063 125.853 295.003 122.722 293.894C121.6 293.497 121.122 292.772 121.284 291.725C121.278 291.634 121.291 291.559 121.322 291.503C121.375 291.406 121.456 291.378 121.559 291.419C125.184 292.897 128.894 293.125 132.684 292.103C133.187 291.966 133.769 291.681 134.425 291.25Z" fill="white"/>
</svg>
